<svg xmlns="http://www.w3.org/2000/svg" width="935" height="935" viewBox="0 0 935 935" version="1.1"><path d="M 265.680 132.250 C 264.520 133.102, 263.499 136.523, 262.471 143 C 261.641 148.225, 259.822 156.121, 258.429 160.546 C 257.035 164.972, 254.231 171.586, 252.197 175.246 C 250.164 178.905, 244.218 186.759, 238.985 192.699 C 233.751 198.640, 227.638 205.750, 225.400 208.500 C 223.161 211.250, 219.400 216.370, 217.041 219.877 C 214.682 223.385, 210.760 230.460, 208.326 235.600 C 205.891 240.740, 202.803 249.263, 201.465 254.540 C 200.126 259.817, 198.737 268.312, 198.378 273.417 C 197.982 279.057, 198.201 285.950, 198.938 290.986 C 199.604 295.544, 201.066 302.249, 202.186 305.886 C 203.307 309.524, 205.770 315.766, 207.661 319.759 C 209.552 323.751, 213.757 330.951, 217.005 335.759 C 220.253 340.566, 225.743 347.729, 229.205 351.676 C 232.667 355.624, 244.050 368.213, 254.500 379.654 C 264.950 391.095, 277.550 404.677, 282.500 409.836 C 287.450 414.995, 295.100 422.023, 299.500 425.454 C 303.900 428.884, 310.425 433.291, 314 435.247 C 317.575 437.203, 323.802 439.977, 327.838 441.412 C 331.874 442.847, 339.020 444.691, 343.719 445.510 C 348.418 446.330, 357.769 447, 364.500 447 C 371.231 447, 380.732 446.303, 385.615 445.452 C 390.497 444.601, 398.418 442.588, 403.218 440.980 C 408.018 439.372, 414.770 436.646, 418.223 434.922 C 421.675 433.198, 428.201 429.117, 432.725 425.853 C 437.248 422.589, 443.790 418.589, 447.261 416.965 C 451.034 415.199, 456.863 413.546, 461.756 412.854 C 468.027 411.967, 471.641 411.977, 477.220 412.895 C 481.224 413.554, 486.775 415.132, 489.556 416.402 C 492.336 417.672, 500.152 422.364, 506.925 426.829 C 513.815 431.371, 522.819 436.330, 527.369 438.088 C 531.841 439.816, 539.775 442.382, 545 443.790 C 553.551 446.094, 556.397 446.357, 573.500 446.425 C 590.388 446.492, 593.445 446.243, 601 444.186 C 605.675 442.914, 613.605 439.932, 618.623 437.560 C 623.640 435.188, 630.508 431.371, 633.884 429.078 C 637.261 426.785, 643.015 422.117, 646.670 418.705 C 650.326 415.292, 660.333 404.630, 668.908 395.011 C 677.484 385.392, 690.732 370.767, 698.348 362.511 C 705.965 354.255, 715.085 343.675, 718.615 339 C 722.145 334.325, 727.034 326.450, 729.478 321.500 C 731.923 316.550, 735.094 308.450, 736.524 303.500 C 738.231 297.592, 739.315 290.893, 739.679 284 C 740.071 276.569, 739.758 270.777, 738.606 264.186 C 737.710 259.063, 736.050 252.088, 734.915 248.686 C 733.781 245.284, 731.301 239.252, 729.405 235.283 C 727.508 231.314, 723.312 224.114, 720.080 219.283 C 716.847 214.452, 708.526 203.975, 701.587 196 C 692.484 185.537, 687.736 179.115, 684.533 172.932 C 682.091 168.219, 679.197 161.019, 678.101 156.932 C 677.006 152.844, 675.818 147.250, 675.463 144.500 C 675.108 141.750, 674.392 137.817, 673.873 135.760 C 673.175 132.995, 672.275 131.856, 670.424 131.392 C 668.760 130.974, 667.290 131.333, 666.043 132.462 C 664.926 133.472, 663.884 136.255, 663.470 139.330 C 663.088 142.174, 661.742 148.603, 660.478 153.619 C 659.215 158.634, 656.587 166.190, 654.637 170.409 C 652.688 174.629, 648.186 182.251, 644.632 187.347 C 641.079 192.444, 634.875 200.188, 630.846 204.557 C 626.817 208.926, 612.266 224.413, 598.510 238.972 C 584.755 253.532, 562.700 276.677, 549.500 290.406 C 536.300 304.135, 521.900 318.455, 517.500 322.227 C 513.035 326.056, 505.965 330.844, 501.500 333.063 C 497.100 335.249, 490.125 337.747, 486 338.613 C 480.493 339.770, 475.045 340.063, 465.500 339.714 C 454.991 339.331, 451.095 338.752, 445.165 336.691 C 441.131 335.288, 435.344 332.647, 432.304 330.821 C 429.265 328.994, 423.492 324.707, 419.475 321.294 C 415.458 317.880, 395.106 297.180, 374.249 275.294 C 353.392 253.407, 328.361 226.950, 318.626 216.500 C 308.890 206.050, 298.005 193.450, 294.438 188.500 C 290.871 183.550, 286.167 175.876, 283.985 171.446 C 281.804 167.016, 279.162 160.041, 278.115 155.946 C 277.068 151.851, 275.880 145.404, 275.475 141.620 C 274.979 136.980, 274.130 134.130, 272.870 132.870 C 271.841 131.841, 270.186 131, 269.191 131 C 268.196 131, 266.616 131.563, 265.680 132.250 M 254.697 203.439 C 246.555 212.977, 238.144 223.127, 236.005 225.994 C 233.866 228.861, 230.314 234.670, 228.111 238.903 C 225.909 243.135, 222.893 250.626, 221.409 255.549 C 219.055 263.357, 218.701 266.288, 218.643 278.500 C 218.587 290.197, 218.951 293.816, 220.853 300.500 C 222.106 304.900, 225.374 312.775, 228.115 318 C 230.856 323.225, 235.691 330.733, 238.860 334.684 C 242.029 338.635, 253.804 351.910, 265.029 364.184 C 276.253 376.458, 290.851 391.954, 297.468 398.621 C 304.143 405.345, 312.617 412.751, 316.500 415.255 C 320.350 417.737, 326.313 420.951, 329.750 422.397 C 333.188 423.843, 338.588 425.708, 341.750 426.543 C 344.913 427.378, 351.775 428.483, 357 428.999 C 363.335 429.625, 369.497 429.581, 375.496 428.865 C 380.444 428.275, 388.224 426.711, 392.785 425.389 C 397.345 424.068, 404.256 421.386, 408.141 419.429 C 412.026 417.472, 419.547 412.903, 424.853 409.275 C 430.159 405.646, 437.200 401.418, 440.500 399.877 C 443.800 398.337, 449.182 396.385, 452.460 395.539 C 455.994 394.626, 462.727 394, 469 394 C 475.273 394, 482.006 394.626, 485.540 395.539 C 488.818 396.385, 494.246 398.355, 497.601 399.916 C 500.957 401.478, 508.587 406.033, 514.556 410.037 C 520.525 414.042, 528.627 418.806, 532.559 420.623 C 536.492 422.440, 543.038 424.833, 547.105 425.940 C 551.172 427.047, 558.550 428.401, 563.500 428.949 C 569.123 429.572, 575.689 429.608, 581 429.047 C 585.675 428.553, 591.608 427.669, 594.185 427.084 C 596.761 426.499, 601.486 425.059, 604.685 423.884 C 607.883 422.708, 613.985 419.694, 618.245 417.185 C 622.505 414.677, 629.176 409.717, 633.070 406.163 C 636.964 402.609, 648.103 390.954, 657.825 380.263 C 667.546 369.573, 679.906 356.027, 685.290 350.163 C 690.675 344.298, 697.655 336.125, 700.802 332 C 703.949 327.875, 708.401 320.888, 710.696 316.473 C 712.992 312.058, 715.810 305.083, 716.960 300.973 C 718.109 296.863, 719.327 289.413, 719.665 284.419 C 720.023 279.123, 719.783 271.943, 719.089 267.194 C 718.434 262.715, 716.861 256.001, 715.593 252.275 C 714.325 248.549, 712.036 243.025, 710.506 240 C 708.975 236.975, 705.967 231.910, 703.821 228.745 C 701.675 225.580, 693.259 215.230, 685.120 205.745 C 676.981 196.260, 669.687 187.988, 668.911 187.362 C 667.773 186.444, 665.687 188.281, 658.122 196.862 C 652.965 202.713, 630.015 227.269, 607.122 251.432 C 584.230 275.594, 557.175 303.746, 547 313.991 C 536.825 324.236, 525.575 334.798, 522 337.461 C 518.425 340.125, 511.892 344.008, 507.482 346.091 C 503.072 348.175, 495.872 350.910, 491.482 352.169 C 484.709 354.113, 481.228 354.453, 468.500 354.417 C 455.121 354.380, 452.549 354.084, 444.703 351.678 C 439.865 350.195, 433.323 347.677, 430.164 346.083 C 427.005 344.488, 420.621 340.366, 415.976 336.922 C 411.331 333.478, 401.187 324.324, 393.434 316.580 C 385.681 308.836, 366.520 289, 350.854 272.500 C 335.188 256, 315.200 234.842, 306.435 225.481 C 297.671 216.121, 286.026 203.409, 280.557 197.231 C 275.088 191.054, 270.363 186.022, 270.057 186.049 C 269.751 186.075, 262.839 193.901, 254.697 203.439 M 669 463.908 C 658.888 474.229, 656.474 476.141, 649 479.746 C 644.325 482.001, 637.238 484.616, 633.251 485.558 C 627.589 486.895, 623.319 487.150, 613.751 486.722 C 606.234 486.386, 598.965 485.440, 594.940 484.274 C 591.331 483.229, 587.844 482.552, 587.190 482.770 C 586.535 482.988, 586 483.844, 586 484.672 C 586 485.500, 588.955 489.400, 592.566 493.339 C 596.177 497.277, 601.181 503.567, 603.686 507.315 C 606.191 511.064, 609.753 517.718, 611.602 522.102 C 613.451 526.487, 615.727 532.870, 616.659 536.287 C 617.730 540.212, 618.350 546.182, 618.344 552.500 C 618.337 559.716, 617.723 564.689, 616.139 570.362 C 614.932 574.686, 612.684 580.761, 611.143 583.862 C 609.601 586.963, 606.180 592.650, 603.540 596.500 C 598.739 603.500, 598.739 603.500, 599.307 612.500 C 599.627 617.586, 600.816 624.323, 602.041 627.993 C 603.232 631.565, 605.116 636.290, 606.226 638.493 C 607.336 640.697, 610.206 645.269, 612.604 648.654 C 615.002 652.039, 619.560 657.136, 622.732 659.981 C 625.904 662.827, 631.425 666.866, 635 668.957 C 638.575 671.048, 644.650 673.882, 648.500 675.255 C 652.350 676.628, 658.726 678.323, 662.668 679.021 C 667.188 679.822, 673.837 680.085, 680.668 679.733 C 687.691 679.371, 694.318 678.342, 699.513 676.806 C 703.920 675.504, 710.594 672.722, 714.344 670.624 C 718.094 668.527, 724.332 663.821, 728.207 660.166 C 732.081 656.512, 737.045 650.878, 739.239 647.648 C 741.433 644.418, 744.535 638.891, 746.133 635.367 C 747.731 631.843, 749.788 625.931, 750.706 622.230 C 751.869 617.534, 752.379 611.118, 752.394 601 C 752.405 592.917, 751.847 583.845, 751.133 580.500 C 750.429 577.200, 748.306 569.474, 746.417 563.331 C 743.724 554.574, 742.349 551.630, 740.049 549.695 C 738.235 548.168, 734.271 546.594, 729.662 545.568 C 725.562 544.656, 718.480 542.107, 713.923 539.903 C 707.677 536.883, 703.985 534.214, 698.923 529.061 C 694.152 524.204, 691.011 519.805, 688.073 513.863 C 685.798 509.263, 683.268 503.025, 682.451 500 C 681.634 496.975, 680.685 490.193, 680.342 484.928 C 679.893 478.020, 680.197 472.502, 681.435 465.096 C 682.379 459.453, 682.906 454.198, 682.607 453.418 C 682.308 452.638, 681.711 452.038, 681.281 452.085 C 680.852 452.131, 675.325 457.452, 669 463.908 M 254 454.419 C 254 455.200, 254.732 458.687, 255.627 462.169 C 256.661 466.193, 257.260 472.691, 257.271 480 C 257.282 487.563, 256.713 493.725, 255.610 498 C 254.687 501.575, 252.638 507.277, 251.055 510.672 C 249.473 514.067, 247.011 518.567, 245.585 520.672 C 244.159 522.777, 240.487 527.042, 237.424 530.149 C 234.361 533.257, 229.271 537.176, 226.114 538.859 C 222.956 540.542, 216.126 543.124, 210.936 544.597 C 205.746 546.070, 200.276 547.893, 198.780 548.648 C 197.283 549.403, 195.642 550.804, 195.132 551.760 C 194.622 552.717, 192.642 558.225, 190.733 564 C 188.824 569.775, 186.650 577.875, 185.903 582 C 185.150 586.156, 184.600 595.296, 184.669 602.500 C 184.761 612.141, 185.326 617.502, 186.856 623.249 C 187.990 627.511, 190.555 634.260, 192.556 638.247 C 194.557 642.234, 197.726 647.584, 199.600 650.136 C 201.474 652.688, 205.854 657.414, 209.333 660.638 C 212.813 663.862, 218.207 668.014, 221.319 669.865 C 224.431 671.716, 230.920 674.596, 235.739 676.265 C 243.025 678.789, 246.520 679.380, 256.500 679.775 C 265.204 680.120, 270.624 679.811, 276.234 678.651 C 280.488 677.771, 287.301 675.757, 291.375 674.175 C 295.449 672.593, 301.954 669.189, 305.832 666.612 C 309.710 664.034, 315.722 658.852, 319.191 655.097 C 322.661 651.342, 327.199 645.397, 329.276 641.885 C 331.352 638.373, 334.232 631.900, 335.676 627.500 C 337.620 621.575, 338.327 617.277, 338.401 610.929 C 338.500 602.358, 338.500 602.358, 334.172 596.619 C 331.792 593.462, 328.318 587.644, 326.454 583.690 C 324.589 579.735, 322.334 573.800, 321.442 570.500 C 320.550 567.200, 319.590 560.225, 319.309 555 C 318.943 548.210, 319.257 543.545, 320.408 538.647 C 321.294 534.877, 323.197 528.802, 324.638 525.147 C 326.078 521.491, 329.285 515.054, 331.764 510.841 C 334.244 506.629, 339.811 499.263, 344.136 494.473 C 348.461 489.683, 352 485.421, 352 485.004 C 352 484.586, 351.438 483.791, 350.750 483.236 C 349.886 482.538, 346.565 482.985, 340 484.682 C 331.747 486.816, 328.860 487.086, 318 486.737 C 307.720 486.407, 304.100 485.855, 297.617 483.630 C 293.281 482.142, 286.531 478.856, 282.617 476.327 C 278.703 473.799, 271.383 467.515, 266.352 462.365 C 261.320 457.214, 256.483 453, 255.602 453 C 254.721 453, 254 453.639, 254 454.419 M 453 483.883 C 448.325 484.917, 441.968 486.893, 438.873 488.273 C 435.778 489.652, 430.632 492.453, 427.437 494.497 C 424.242 496.541, 418.959 500.753, 415.697 503.856 C 412.435 506.960, 407.783 512.272, 405.359 515.660 C 402.936 519.048, 399.348 525.294, 397.386 529.541 C 395.424 533.788, 392.776 541.369, 391.503 546.389 C 390.230 551.408, 388.878 559.562, 388.498 564.507 C 388.082 569.935, 388.274 576.857, 388.982 581.967 C 389.627 586.625, 390.760 591.883, 391.499 593.653 C 392.343 595.672, 395.611 598.917, 400.278 602.368 C 404.366 605.391, 409.592 610.001, 411.890 612.612 C 414.188 615.223, 417.621 620.541, 419.519 624.430 C 421.417 628.318, 423.652 634.182, 424.485 637.460 C 425.352 640.870, 426 647.802, 426 653.661 C 426 659.293, 425.499 666.286, 424.887 669.201 C 424.275 672.115, 422.321 677.650, 420.545 681.500 C 418.768 685.350, 415.417 690.883, 413.097 693.797 C 410.778 696.710, 404.681 702.208, 399.549 706.015 C 392.814 711.011, 389.894 713.850, 389.054 716.218 C 388.413 718.023, 387.458 723.230, 386.930 727.788 C 386.297 733.248, 386.323 739.821, 387.005 747.049 C 387.592 753.275, 389.159 761.586, 390.628 766.261 C 392.051 770.792, 394.755 777.670, 396.635 781.544 C 398.515 785.419, 402.436 791.719, 405.348 795.544 C 408.260 799.370, 413.655 805.036, 417.337 808.135 C 421.019 811.234, 427.062 815.355, 430.766 817.293 C 434.470 819.231, 440.875 821.870, 445 823.158 C 451.509 825.191, 454.547 825.500, 468 825.500 C 481.464 825.500, 484.479 825.192, 490.957 823.158 C 495.058 821.870, 501.409 819.309, 505.069 817.465 C 508.729 815.622, 514.770 811.672, 518.492 808.687 C 522.214 805.702, 527.705 800.211, 530.693 796.484 C 533.681 792.757, 538.171 785.638, 540.669 780.663 C 543.168 775.688, 546.284 767.394, 547.593 762.232 C 548.902 757.070, 550.261 748.044, 550.612 742.173 C 550.998 735.729, 550.795 728.529, 550.100 724 C 549.467 719.875, 548.137 715.375, 547.144 714 C 546.151 712.625, 542.225 709.173, 538.420 706.328 C 534.614 703.484, 529.206 698.649, 526.403 695.584 C 523.599 692.520, 519.895 687.197, 518.171 683.756 C 516.447 680.315, 514.353 674.818, 513.518 671.540 C 512.611 667.978, 512 661.122, 512 654.500 C 512 647.892, 512.611 641.015, 513.515 637.460 C 514.348 634.182, 516.583 628.318, 518.481 624.430 C 520.379 620.541, 523.812 615.223, 526.110 612.612 C 528.408 610.001, 533.634 605.391, 537.722 602.368 C 542.572 598.781, 545.647 595.696, 546.567 593.493 C 547.343 591.636, 548.461 585.791, 549.050 580.505 C 549.834 573.477, 549.812 568.301, 548.969 561.243 C 548.336 555.935, 546.706 547.747, 545.349 543.046 C 543.991 538.346, 541.355 531.350, 539.490 527.500 C 537.625 523.650, 533.682 517.350, 530.728 513.500 C 527.774 509.650, 522.240 503.877, 518.430 500.670 C 514.620 497.464, 507.452 492.854, 502.501 490.426 C 497.551 487.998, 490.800 485.326, 487.500 484.488 C 484.200 483.650, 477 482.748, 471.500 482.483 C 463.960 482.120, 459.409 482.464, 453 483.883 M 660.481 492.267 C 658.842 493.311, 655.025 495.299, 652 496.684 C 648.975 498.070, 643.261 500.033, 639.302 501.047 C 635.344 502.062, 629.381 502.990, 626.052 503.110 C 622.724 503.230, 620 503.464, 620 503.630 C 620 503.795, 621.550 506.759, 623.444 510.216 C 625.338 513.672, 628.231 520.550, 629.873 525.500 C 631.514 530.450, 633.403 538.291, 634.069 542.924 C 634.778 547.851, 635.035 555.322, 634.689 560.924 C 634.340 566.574, 633.048 574.111, 631.537 579.307 C 630.128 584.152, 627.806 590.452, 626.376 593.307 C 624.946 596.163, 622.027 600.792, 619.888 603.592 C 617.665 606.504, 616 609.802, 616 611.294 C 616 612.729, 617.290 617.741, 618.866 622.432 C 620.442 627.122, 623.254 633.496, 625.116 636.595 C 626.977 639.694, 631.421 644.918, 634.990 648.203 C 639.098 651.983, 644.422 655.574, 649.490 657.985 C 653.896 660.081, 659.975 662.391, 663 663.120 C 666.025 663.849, 672.550 664.427, 677.500 664.405 C 683.086 664.380, 688.756 663.694, 692.448 662.597 C 695.719 661.625, 700.986 659.522, 704.152 657.923 C 707.318 656.325, 712.829 652.286, 716.398 648.946 C 719.968 645.607, 724.529 640.403, 726.534 637.383 C 728.539 634.362, 731.581 628.202, 733.294 623.695 C 736.239 615.943, 736.408 614.744, 736.411 601.500 C 736.414 590.417, 735.959 585.676, 734.225 578.744 C 733.020 573.929, 731.148 568.250, 730.064 566.125 C 728.398 562.860, 727.348 562.073, 723.296 561.054 C 720.658 560.390, 715.175 558.464, 711.111 556.772 C 707.047 555.081, 700.297 551.113, 696.111 547.955 C 691.925 544.796, 686.189 539.351, 683.363 535.856 C 680.538 532.360, 676.920 527.250, 675.322 524.500 C 673.724 521.750, 671.149 516.575, 669.599 513 C 668.049 509.425, 666.034 502.870, 665.122 498.434 C 663.463 490.368, 663.463 490.368, 660.481 492.267 M 272.641 497.980 C 271.763 501.867, 269.840 508.074, 268.368 511.773 C 266.895 515.473, 263.848 521.520, 261.595 525.211 C 259.343 528.901, 255.353 534.395, 252.729 537.419 C 250.104 540.442, 245.379 544.898, 242.229 547.320 C 239.078 549.743, 234.117 552.970, 231.205 554.491 C 228.293 556.012, 222.236 558.477, 217.745 559.969 C 212.397 561.745, 208.963 563.512, 207.790 565.090 C 206.806 566.416, 204.809 572, 203.353 577.500 C 201.175 585.726, 200.691 589.806, 200.623 600.500 C 200.560 610.392, 200.975 614.934, 202.360 619.500 C 203.360 622.800, 205.817 628.650, 207.819 632.500 C 210.211 637.100, 214.038 642.075, 218.980 647.010 C 223.331 651.355, 229.028 655.848, 232.500 657.671 C 235.800 659.404, 241.200 661.620, 244.500 662.595 C 248.577 663.799, 253.865 664.366, 261 664.363 C 270.082 664.360, 272.654 663.956, 280.044 661.370 C 284.743 659.726, 291.128 656.695, 294.232 654.634 C 297.335 652.574, 302.491 648.089, 305.687 644.668 C 308.884 641.246, 313.017 635.593, 314.872 632.105 C 316.726 628.617, 318.858 623.454, 319.610 620.632 C 320.361 617.809, 320.982 613.793, 320.988 611.707 C 320.997 608.824, 320.046 606.650, 317.024 602.648 C 314.837 599.751, 311.757 594.483, 310.179 590.940 C 308.601 587.398, 306.466 581.575, 305.433 578 C 303.964 572.914, 303.549 568.128, 303.527 556 C 303.504 542.858, 303.852 539.207, 305.814 532 C 307.086 527.325, 310.214 519.225, 312.765 514 C 315.315 508.775, 317.540 504.265, 317.708 503.977 C 317.877 503.690, 315.036 503.321, 311.394 503.157 C 307.753 502.994, 301.501 502.023, 297.501 501 C 293.501 499.977, 286.915 497.425, 282.864 495.328 C 278.814 493.232, 275.216 491.381, 274.868 491.214 C 274.521 491.048, 273.519 494.093, 272.641 497.980 M 457.017 501.497 C 453.451 502.307, 448.726 503.692, 446.517 504.576 C 444.307 505.459, 439.479 508.189, 435.786 510.644 C 432.094 513.098, 426.541 517.894, 423.448 521.303 C 419.905 525.206, 416.224 530.831, 413.501 536.500 C 411.123 541.450, 408.383 548.650, 407.412 552.500 C 406.226 557.199, 405.622 563.575, 405.573 571.896 C 405.500 584.292, 405.500 584.292, 409.940 587.896 C 412.382 589.878, 416.839 593.750, 419.844 596.500 C 422.850 599.250, 427.425 604.722, 430.012 608.661 C 432.599 612.599, 435.879 618.727, 437.301 622.278 C 438.722 625.829, 440.646 632.490, 441.576 637.080 C 442.887 643.549, 443.137 648.357, 442.690 658.463 C 442.372 665.633, 441.369 674.200, 440.462 677.500 C 439.554 680.800, 437.245 686.714, 435.331 690.642 C 433.417 694.570, 429.747 700.392, 427.176 703.580 C 424.604 706.767, 419.771 711.653, 416.437 714.438 C 413.102 717.222, 409.052 720.450, 407.437 721.611 C 404.500 723.722, 404.500 723.722, 404.542 737.111 C 404.572 746.615, 405.105 752.531, 406.381 757.500 C 407.369 761.350, 410.197 768.711, 412.664 773.858 C 416.286 781.414, 418.628 784.707, 424.825 790.959 C 430.549 796.733, 434.406 799.626, 440 802.340 C 444.125 804.342, 450.425 806.716, 454 807.615 C 458.912 808.851, 463.188 809.120, 471.500 808.716 C 478.898 808.356, 484.411 807.505, 488.336 806.115 C 491.545 804.979, 496.720 802.609, 499.836 800.849 C 502.951 799.090, 508.657 794.466, 512.514 790.575 C 517.290 785.759, 520.865 780.928, 523.714 775.443 C 526.017 771.012, 528.840 763.961, 529.989 759.773 C 531.138 755.585, 532.398 748.411, 532.789 743.830 C 533.180 739.248, 533.365 732.904, 533.200 729.731 C 532.899 723.962, 532.899 723.962, 525.200 717.964 C 520.965 714.665, 515.111 709.161, 512.192 705.733 C 509.273 702.305, 505.115 695.900, 502.952 691.500 C 500.789 687.100, 498.282 680.800, 497.380 677.500 C 496.388 673.873, 495.550 665.882, 495.260 657.294 C 494.888 646.303, 495.161 641.323, 496.462 635.294 C 497.407 630.915, 500.316 622.999, 503.100 617.229 C 507.232 608.667, 509.341 605.669, 515.778 599.215 C 520.025 594.957, 525.525 589.857, 528 587.881 C 532.500 584.288, 532.500 584.288, 532.357 571.894 C 532.254 562.929, 531.646 557.369, 530.160 551.797 C 529.030 547.560, 526.451 540.700, 524.428 536.552 C 522.406 532.404, 518.199 525.972, 515.080 522.258 C 511.732 518.272, 506.295 513.426, 501.808 510.428 C 497.627 507.635, 491.204 504.364, 487.534 503.159 C 483.688 501.896, 477.185 500.769, 472.181 500.497 C 466.513 500.189, 461.250 500.536, 457.017 501.497" stroke="none" fill="#f9fafb" fill-rule="evenodd"/><path d="M 428.500 1.132 C 423 1.603, 411.750 2.920, 403.500 4.058 C 395.250 5.196, 381.975 7.467, 374 9.106 C 366.025 10.744, 352.951 13.854, 344.946 16.017 C 336.941 18.181, 324.341 22.022, 316.946 24.555 C 309.551 27.087, 297.875 31.430, 291 34.204 C 284.125 36.979, 271.300 42.751, 262.500 47.031 C 253.700 51.312, 240.875 58.058, 234 62.022 C 227.125 65.987, 215.425 73.290, 208 78.251 C 200.575 83.213, 189.775 90.887, 184 95.306 C 178.225 99.725, 169 107.185, 163.500 111.885 C 158 116.585, 147.708 126.071, 140.630 132.965 C 133.551 139.859, 122.802 151.125, 116.743 158 C 110.684 164.875, 101.576 175.900, 96.503 182.500 C 91.430 189.100, 83.218 200.575, 78.255 208 C 73.292 215.425, 65.987 227.125, 62.022 234 C 58.058 240.875, 51.312 253.700, 47.031 262.500 C 42.751 271.300, 36.979 284.125, 34.204 291 C 31.430 297.875, 27.087 309.551, 24.555 316.946 C 22.022 324.341, 18.181 336.941, 16.017 344.946 C 13.854 352.951, 10.744 366.025, 9.106 374 C 7.467 381.975, 5.206 395.250, 4.081 403.500 C 2.956 411.750, 1.582 423.900, 1.028 430.500 C 0.474 437.100, 0.021 453.750, 0.021 467.500 C 0.021 481.250, 0.474 497.900, 1.028 504.500 C 1.582 511.100, 2.956 523.250, 4.081 531.500 C 5.206 539.750, 7.467 553.025, 9.106 561 C 10.744 568.975, 13.854 582.049, 16.017 590.054 C 18.181 598.059, 22.022 610.659, 24.555 618.054 C 27.087 625.449, 31.430 637.125, 34.204 644 C 36.979 650.875, 42.751 663.700, 47.031 672.500 C 51.312 681.300, 58.058 694.125, 62.022 701 C 65.987 707.875, 73.290 719.575, 78.251 727 C 83.213 734.425, 90.887 745.225, 95.306 751 C 99.725 756.775, 107.185 766, 111.885 771.500 C 116.585 777, 126.071 787.292, 132.965 794.370 C 139.859 801.449, 151.125 812.198, 158 818.257 C 164.875 824.316, 175.900 833.424, 182.500 838.497 C 189.100 843.570, 200.575 851.782, 208 856.745 C 215.425 861.708, 227.125 869.013, 234 872.978 C 240.875 876.942, 253.700 883.688, 262.500 887.969 C 271.300 892.249, 284.125 898.021, 291 900.796 C 297.875 903.570, 309.551 907.913, 316.946 910.445 C 324.341 912.978, 336.941 916.819, 344.946 918.983 C 352.951 921.146, 366.025 924.256, 374 925.894 C 381.975 927.533, 395.250 929.794, 403.500 930.919 C 411.750 932.044, 423.900 933.418, 430.500 933.972 C 437.100 934.526, 453.750 934.979, 467.500 934.979 C 481.250 934.979, 497.900 934.526, 504.500 933.972 C 511.100 933.418, 523.250 932.044, 531.500 930.919 C 539.750 929.794, 553.025 927.533, 561 925.894 C 568.975 924.256, 582.049 921.146, 590.054 918.983 C 598.059 916.819, 610.659 912.978, 618.054 910.445 C 625.449 907.913, 637.125 903.570, 644 900.796 C 650.875 898.021, 663.700 892.249, 672.500 887.969 C 681.300 883.688, 694.125 876.942, 701 872.978 C 707.875 869.013, 719.575 861.708, 727 856.745 C 734.425 851.782, 745.900 843.570, 752.500 838.497 C 759.100 833.424, 770.125 824.316, 777 818.257 C 783.875 812.198, 795.141 801.449, 802.035 794.370 C 808.929 787.292, 818.415 777, 823.115 771.500 C 827.815 766, 835.275 756.775, 839.694 751 C 844.113 745.225, 851.787 734.425, 856.749 727 C 861.710 719.575, 869.013 707.875, 872.978 701 C 876.942 694.125, 883.688 681.300, 887.969 672.500 C 892.249 663.700, 898.021 650.875, 900.796 644 C 903.570 637.125, 907.913 625.449, 910.445 618.054 C 912.978 610.659, 916.819 598.059, 918.983 590.054 C 921.146 582.049, 924.255 568.975, 925.892 561 C 927.530 553.025, 929.794 539.899, 930.924 531.832 C 932.054 523.764, 933.278 512.611, 933.642 507.046 C 934.007 501.482, 934.687 496.694, 935.153 496.406 C 935.619 496.118, 936 482.607, 936 466.382 C 936 450.157, 935.617 437.119, 935.148 437.408 C 934.680 437.698, 934 433.413, 933.638 427.886 C 933.276 422.359, 932.054 411.236, 930.924 403.168 C 929.794 395.101, 927.530 381.975, 925.892 374 C 924.255 366.025, 921.146 352.951, 918.983 344.946 C 916.819 336.941, 912.978 324.341, 910.445 316.946 C 907.913 309.551, 903.570 297.875, 900.796 291 C 898.021 284.125, 892.249 271.300, 887.969 262.500 C 883.688 253.700, 876.942 240.875, 872.978 234 C 869.013 227.125, 861.710 215.425, 856.749 208 C 851.787 200.575, 844.113 189.775, 839.694 184 C 835.275 178.225, 827.815 169, 823.115 163.500 C 818.415 158, 808.929 147.708, 802.035 140.630 C 795.141 133.551, 783.875 122.802, 777 116.743 C 770.125 110.684, 759.100 101.576, 752.500 96.503 C 745.900 91.430, 734.425 83.218, 727 78.255 C 719.575 73.292, 707.875 65.987, 701 62.022 C 694.125 58.058, 681.300 51.312, 672.500 47.031 C 663.700 42.751, 650.875 36.979, 644 34.204 C 637.125 31.430, 625.449 27.087, 618.054 24.555 C 610.659 22.022, 598.059 18.181, 590.054 16.017 C 582.049 13.854, 568.975 10.744, 561 9.106 C 553.025 7.467, 539.750 5.206, 531.500 4.081 C 523.250 2.956, 511.100 1.582, 504.500 1.028 C 497.900 0.474, 480.350 0.078, 465.500 0.148 C 450.650 0.218, 434 0.661, 428.500 1.132 M 265.680 132.250 C 264.520 133.102, 263.499 136.523, 262.471 143 C 261.641 148.225, 259.822 156.121, 258.429 160.546 C 257.035 164.972, 254.231 171.586, 252.197 175.246 C 250.164 178.905, 244.218 186.759, 238.985 192.699 C 233.751 198.640, 227.638 205.750, 225.400 208.500 C 223.161 211.250, 219.400 216.370, 217.041 219.877 C 214.682 223.385, 210.760 230.460, 208.326 235.600 C 205.891 240.740, 202.803 249.263, 201.465 254.540 C 200.126 259.817, 198.737 268.312, 198.378 273.417 C 197.982 279.057, 198.201 285.950, 198.938 290.986 C 199.604 295.544, 201.066 302.249, 202.186 305.886 C 203.307 309.524, 205.770 315.766, 207.661 319.759 C 209.552 323.751, 213.757 330.951, 217.005 335.759 C 220.253 340.566, 225.743 347.729, 229.205 351.676 C 232.667 355.624, 244.050 368.213, 254.500 379.654 C 264.950 391.095, 277.550 404.677, 282.500 409.836 C 287.450 414.995, 295.100 422.023, 299.500 425.454 C 303.900 428.884, 310.425 433.291, 314 435.247 C 317.575 437.203, 323.802 439.977, 327.838 441.412 C 331.874 442.847, 339.020 444.691, 343.719 445.510 C 348.418 446.330, 357.769 447, 364.500 447 C 371.231 447, 380.732 446.303, 385.615 445.452 C 390.497 444.601, 398.418 442.588, 403.218 440.980 C 408.018 439.372, 414.770 436.646, 418.223 434.922 C 421.675 433.198, 428.201 429.117, 432.725 425.853 C 437.248 422.589, 443.790 418.589, 447.261 416.965 C 451.034 415.199, 456.863 413.546, 461.756 412.854 C 468.027 411.967, 471.641 411.977, 477.220 412.895 C 481.224 413.554, 486.775 415.132, 489.556 416.402 C 492.336 417.672, 500.152 422.364, 506.925 426.829 C 513.815 431.371, 522.819 436.330, 527.369 438.088 C 531.841 439.816, 539.775 442.382, 545 443.790 C 553.551 446.094, 556.397 446.357, 573.500 446.425 C 590.388 446.492, 593.445 446.243, 601 444.186 C 605.675 442.914, 613.605 439.932, 618.623 437.560 C 623.640 435.188, 630.508 431.371, 633.884 429.078 C 637.261 426.785, 643.015 422.117, 646.670 418.705 C 650.326 415.292, 660.333 404.630, 668.908 395.011 C 677.484 385.392, 690.732 370.767, 698.348 362.511 C 705.965 354.255, 715.085 343.675, 718.615 339 C 722.145 334.325, 727.034 326.450, 729.478 321.500 C 731.923 316.550, 735.094 308.450, 736.524 303.500 C 738.231 297.592, 739.315 290.893, 739.679 284 C 740.071 276.569, 739.758 270.777, 738.606 264.186 C 737.710 259.063, 736.050 252.088, 734.915 248.686 C 733.781 245.284, 731.301 239.252, 729.405 235.283 C 727.508 231.314, 723.312 224.114, 720.080 219.283 C 716.847 214.452, 708.526 203.975, 701.587 196 C 692.484 185.537, 687.736 179.115, 684.533 172.932 C 682.091 168.219, 679.197 161.019, 678.101 156.932 C 677.006 152.844, 675.818 147.250, 675.463 144.500 C 675.108 141.750, 674.392 137.817, 673.873 135.760 C 673.175 132.995, 672.275 131.856, 670.424 131.392 C 668.760 130.974, 667.290 131.333, 666.043 132.462 C 664.926 133.472, 663.884 136.255, 663.470 139.330 C 663.088 142.174, 661.742 148.603, 660.478 153.619 C 659.215 158.634, 656.587 166.190, 654.637 170.409 C 652.688 174.629, 648.186 182.251, 644.632 187.347 C 641.079 192.444, 634.875 200.188, 630.846 204.557 C 626.817 208.926, 612.266 224.413, 598.510 238.972 C 584.755 253.532, 562.700 276.677, 549.500 290.406 C 536.300 304.135, 521.900 318.455, 517.500 322.227 C 513.035 326.056, 505.965 330.844, 501.500 333.063 C 497.100 335.249, 490.125 337.747, 486 338.613 C 480.493 339.770, 475.045 340.063, 465.500 339.714 C 454.991 339.331, 451.095 338.752, 445.165 336.691 C 441.131 335.288, 435.344 332.647, 432.304 330.821 C 429.265 328.994, 423.492 324.707, 419.475 321.294 C 415.458 317.880, 395.106 297.180, 374.249 275.294 C 353.392 253.407, 328.361 226.950, 318.626 216.500 C 308.890 206.050, 298.005 193.450, 294.438 188.500 C 290.871 183.550, 286.167 175.876, 283.985 171.446 C 281.804 167.016, 279.162 160.041, 278.115 155.946 C 277.068 151.851, 275.880 145.404, 275.475 141.620 C 274.979 136.980, 274.130 134.130, 272.870 132.870 C 271.841 131.841, 270.186 131, 269.191 131 C 268.196 131, 266.616 131.563, 265.680 132.250 M 254.697 203.439 C 246.555 212.977, 238.144 223.127, 236.005 225.994 C 233.866 228.861, 230.314 234.670, 228.111 238.903 C 225.909 243.135, 222.893 250.626, 221.409 255.549 C 219.055 263.357, 218.701 266.288, 218.643 278.500 C 218.587 290.197, 218.951 293.816, 220.853 300.500 C 222.106 304.900, 225.374 312.775, 228.115 318 C 230.856 323.225, 235.691 330.733, 238.860 334.684 C 242.029 338.635, 253.804 351.910, 265.029 364.184 C 276.253 376.458, 290.851 391.954, 297.468 398.621 C 304.143 405.345, 312.617 412.751, 316.500 415.255 C 320.350 417.737, 326.313 420.951, 329.750 422.397 C 333.188 423.843, 338.588 425.708, 341.750 426.543 C 344.913 427.378, 351.775 428.483, 357 428.999 C 363.335 429.625, 369.497 429.581, 375.496 428.865 C 380.444 428.275, 388.224 426.711, 392.785 425.389 C 397.345 424.068, 404.256 421.386, 408.141 419.429 C 412.026 417.472, 419.547 412.903, 424.853 409.275 C 430.159 405.646, 437.200 401.418, 440.500 399.877 C 443.800 398.337, 449.182 396.385, 452.460 395.539 C 455.994 394.626, 462.727 394, 469 394 C 475.273 394, 482.006 394.626, 485.540 395.539 C 488.818 396.385, 494.246 398.355, 497.601 399.916 C 500.957 401.478, 508.587 406.033, 514.556 410.037 C 520.525 414.042, 528.627 418.806, 532.559 420.623 C 536.492 422.440, 543.038 424.833, 547.105 425.940 C 551.172 427.047, 558.550 428.401, 563.500 428.949 C 569.123 429.572, 575.689 429.608, 581 429.047 C 585.675 428.553, 591.608 427.669, 594.185 427.084 C 596.761 426.499, 601.486 425.059, 604.685 423.884 C 607.883 422.708, 613.985 419.694, 618.245 417.185 C 622.505 414.677, 629.176 409.717, 633.070 406.163 C 636.964 402.609, 648.103 390.954, 657.825 380.263 C 667.546 369.573, 679.906 356.027, 685.290 350.163 C 690.675 344.298, 697.655 336.125, 700.802 332 C 703.949 327.875, 708.401 320.888, 710.696 316.473 C 712.992 312.058, 715.810 305.083, 716.960 300.973 C 718.109 296.863, 719.327 289.413, 719.665 284.419 C 720.023 279.123, 719.783 271.943, 719.089 267.194 C 718.434 262.715, 716.861 256.001, 715.593 252.275 C 714.325 248.549, 712.036 243.025, 710.506 240 C 708.975 236.975, 705.967 231.910, 703.821 228.745 C 701.675 225.580, 693.259 215.230, 685.120 205.745 C 676.981 196.260, 669.687 187.988, 668.911 187.362 C 667.773 186.444, 665.687 188.281, 658.122 196.862 C 652.965 202.713, 630.015 227.269, 607.122 251.432 C 584.230 275.594, 557.175 303.746, 547 313.991 C 536.825 324.236, 525.575 334.798, 522 337.461 C 518.425 340.125, 511.892 344.008, 507.482 346.091 C 503.072 348.175, 495.872 350.910, 491.482 352.169 C 484.709 354.113, 481.228 354.453, 468.500 354.417 C 455.121 354.380, 452.549 354.084, 444.703 351.678 C 439.865 350.195, 433.323 347.677, 430.164 346.083 C 427.005 344.488, 420.621 340.366, 415.976 336.922 C 411.331 333.478, 401.187 324.324, 393.434 316.580 C 385.681 308.836, 366.520 289, 350.854 272.500 C 335.188 256, 315.200 234.842, 306.435 225.481 C 297.671 216.121, 286.026 203.409, 280.557 197.231 C 275.088 191.054, 270.363 186.022, 270.057 186.049 C 269.751 186.075, 262.839 193.901, 254.697 203.439 M 0.443 467.500 C 0.443 484, 0.580 490.890, 0.748 482.812 C 0.915 474.733, 0.916 461.233, 0.748 452.812 C 0.581 444.390, 0.444 451, 0.443 467.500 M 669 463.908 C 658.888 474.229, 656.474 476.141, 649 479.746 C 644.325 482.001, 637.238 484.616, 633.251 485.558 C 627.589 486.895, 623.319 487.150, 613.751 486.722 C 606.234 486.386, 598.965 485.440, 594.940 484.274 C 591.331 483.229, 587.844 482.552, 587.190 482.770 C 586.535 482.988, 586 483.844, 586 484.672 C 586 485.500, 588.955 489.400, 592.566 493.339 C 596.177 497.277, 601.181 503.567, 603.686 507.315 C 606.191 511.064, 609.753 517.718, 611.602 522.102 C 613.451 526.487, 615.727 532.870, 616.659 536.287 C 617.730 540.212, 618.350 546.182, 618.344 552.500 C 618.337 559.716, 617.723 564.689, 616.139 570.362 C 614.932 574.686, 612.684 580.761, 611.143 583.862 C 609.601 586.963, 606.180 592.650, 603.540 596.500 C 598.739 603.500, 598.739 603.500, 599.307 612.500 C 599.627 617.586, 600.816 624.323, 602.041 627.993 C 603.232 631.565, 605.116 636.290, 606.226 638.493 C 607.336 640.697, 610.206 645.269, 612.604 648.654 C 615.002 652.039, 619.560 657.136, 622.732 659.981 C 625.904 662.827, 631.425 666.866, 635 668.957 C 638.575 671.048, 644.650 673.882, 648.500 675.255 C 652.350 676.628, 658.726 678.323, 662.668 679.021 C 667.188 679.822, 673.837 680.085, 680.668 679.733 C 687.691 679.371, 694.318 678.342, 699.513 676.806 C 703.920 675.504, 710.594 672.722, 714.344 670.624 C 718.094 668.527, 724.332 663.821, 728.207 660.166 C 732.081 656.512, 737.045 650.878, 739.239 647.648 C 741.433 644.418, 744.535 638.891, 746.133 635.367 C 747.731 631.843, 749.788 625.931, 750.706 622.230 C 751.869 617.534, 752.379 611.118, 752.394 601 C 752.405 592.917, 751.847 583.845, 751.133 580.500 C 750.429 577.200, 748.306 569.474, 746.417 563.331 C 743.724 554.574, 742.349 551.630, 740.049 549.695 C 738.235 548.168, 734.271 546.594, 729.662 545.568 C 725.562 544.656, 718.480 542.107, 713.923 539.903 C 707.677 536.883, 703.985 534.214, 698.923 529.061 C 694.152 524.204, 691.011 519.805, 688.073 513.863 C 685.798 509.263, 683.268 503.025, 682.451 500 C 681.634 496.975, 680.685 490.193, 680.342 484.928 C 679.893 478.020, 680.197 472.502, 681.435 465.096 C 682.379 459.453, 682.906 454.198, 682.607 453.418 C 682.308 452.638, 681.711 452.038, 681.281 452.085 C 680.852 452.131, 675.325 457.452, 669 463.908 M 254 454.419 C 254 455.200, 254.732 458.687, 255.627 462.169 C 256.661 466.193, 257.260 472.691, 257.271 480 C 257.282 487.563, 256.713 493.725, 255.610 498 C 254.687 501.575, 252.638 507.277, 251.055 510.672 C 249.473 514.067, 247.011 518.567, 245.585 520.672 C 244.159 522.777, 240.487 527.042, 237.424 530.149 C 234.361 533.257, 229.271 537.176, 226.114 538.859 C 222.956 540.542, 216.126 543.124, 210.936 544.597 C 205.746 546.070, 200.276 547.893, 198.780 548.648 C 197.283 549.403, 195.642 550.804, 195.132 551.760 C 194.622 552.717, 192.642 558.225, 190.733 564 C 188.824 569.775, 186.650 577.875, 185.903 582 C 185.150 586.156, 184.600 595.296, 184.669 602.500 C 184.761 612.141, 185.326 617.502, 186.856 623.249 C 187.990 627.511, 190.555 634.260, 192.556 638.247 C 194.557 642.234, 197.726 647.584, 199.600 650.136 C 201.474 652.688, 205.854 657.414, 209.333 660.638 C 212.813 663.862, 218.207 668.014, 221.319 669.865 C 224.431 671.716, 230.920 674.596, 235.739 676.265 C 243.025 678.789, 246.520 679.380, 256.500 679.775 C 265.204 680.120, 270.624 679.811, 276.234 678.651 C 280.488 677.771, 287.301 675.757, 291.375 674.175 C 295.449 672.593, 301.954 669.189, 305.832 666.612 C 309.710 664.034, 315.722 658.852, 319.191 655.097 C 322.661 651.342, 327.199 645.397, 329.276 641.885 C 331.352 638.373, 334.232 631.900, 335.676 627.500 C 337.620 621.575, 338.327 617.277, 338.401 610.929 C 338.500 602.358, 338.500 602.358, 334.172 596.619 C 331.792 593.462, 328.318 587.644, 326.454 583.690 C 324.589 579.735, 322.334 573.800, 321.442 570.500 C 320.550 567.200, 319.590 560.225, 319.309 555 C 318.943 548.210, 319.257 543.545, 320.408 538.647 C 321.294 534.877, 323.197 528.802, 324.638 525.147 C 326.078 521.491, 329.285 515.054, 331.764 510.841 C 334.244 506.629, 339.811 499.263, 344.136 494.473 C 348.461 489.683, 352 485.421, 352 485.004 C 352 484.586, 351.438 483.791, 350.750 483.236 C 349.886 482.538, 346.565 482.985, 340 484.682 C 331.747 486.816, 328.860 487.086, 318 486.737 C 307.720 486.407, 304.100 485.855, 297.617 483.630 C 293.281 482.142, 286.531 478.856, 282.617 476.327 C 278.703 473.799, 271.383 467.515, 266.352 462.365 C 261.320 457.214, 256.483 453, 255.602 453 C 254.721 453, 254 453.639, 254 454.419 M 453 483.883 C 448.325 484.917, 441.968 486.893, 438.873 488.273 C 435.778 489.652, 430.632 492.453, 427.437 494.497 C 424.242 496.541, 418.959 500.753, 415.697 503.856 C 412.435 506.960, 407.783 512.272, 405.359 515.660 C 402.936 519.048, 399.348 525.294, 397.386 529.541 C 395.424 533.788, 392.776 541.369, 391.503 546.389 C 390.230 551.408, 388.878 559.562, 388.498 564.507 C 388.082 569.935, 388.274 576.857, 388.982 581.967 C 389.627 586.625, 390.760 591.883, 391.499 593.653 C 392.343 595.672, 395.611 598.917, 400.278 602.368 C 404.366 605.391, 409.592 610.001, 411.890 612.612 C 414.188 615.223, 417.621 620.541, 419.519 624.430 C 421.417 628.318, 423.652 634.182, 424.485 637.460 C 425.352 640.870, 426 647.802, 426 653.661 C 426 659.293, 425.499 666.286, 424.887 669.201 C 424.275 672.115, 422.321 677.650, 420.545 681.500 C 418.768 685.350, 415.417 690.883, 413.097 693.797 C 410.778 696.710, 404.681 702.208, 399.549 706.015 C 392.814 711.011, 389.894 713.850, 389.054 716.218 C 388.413 718.023, 387.458 723.230, 386.930 727.788 C 386.297 733.248, 386.323 739.821, 387.005 747.049 C 387.592 753.275, 389.159 761.586, 390.628 766.261 C 392.051 770.792, 394.755 777.670, 396.635 781.544 C 398.515 785.419, 402.436 791.719, 405.348 795.544 C 408.260 799.370, 413.655 805.036, 417.337 808.135 C 421.019 811.234, 427.062 815.355, 430.766 817.293 C 434.470 819.231, 440.875 821.870, 445 823.158 C 451.509 825.191, 454.547 825.500, 468 825.500 C 481.464 825.500, 484.479 825.192, 490.957 823.158 C 495.058 821.870, 501.409 819.309, 505.069 817.465 C 508.729 815.622, 514.770 811.672, 518.492 808.687 C 522.214 805.702, 527.705 800.211, 530.693 796.484 C 533.681 792.757, 538.171 785.638, 540.669 780.663 C 543.168 775.688, 546.284 767.394, 547.593 762.232 C 548.902 757.070, 550.261 748.044, 550.612 742.173 C 550.998 735.729, 550.795 728.529, 550.100 724 C 549.467 719.875, 548.137 715.375, 547.144 714 C 546.151 712.625, 542.225 709.173, 538.420 706.328 C 534.614 703.484, 529.206 698.649, 526.403 695.584 C 523.599 692.520, 519.895 687.197, 518.171 683.756 C 516.447 680.315, 514.353 674.818, 513.518 671.540 C 512.611 667.978, 512 661.122, 512 654.500 C 512 647.892, 512.611 641.015, 513.515 637.460 C 514.348 634.182, 516.583 628.318, 518.481 624.430 C 520.379 620.541, 523.812 615.223, 526.110 612.612 C 528.408 610.001, 533.634 605.391, 537.722 602.368 C 542.572 598.781, 545.647 595.696, 546.567 593.493 C 547.343 591.636, 548.461 585.791, 549.050 580.505 C 549.834 573.477, 549.812 568.301, 548.969 561.243 C 548.336 555.935, 546.706 547.747, 545.349 543.046 C 543.991 538.346, 541.355 531.350, 539.490 527.500 C 537.625 523.650, 533.682 517.350, 530.728 513.500 C 527.774 509.650, 522.240 503.877, 518.430 500.670 C 514.620 497.464, 507.452 492.854, 502.501 490.426 C 497.551 487.998, 490.800 485.326, 487.500 484.488 C 484.200 483.650, 477 482.748, 471.500 482.483 C 463.960 482.120, 459.409 482.464, 453 483.883 M 660.481 492.267 C 658.842 493.311, 655.025 495.299, 652 496.684 C 648.975 498.070, 643.261 500.033, 639.302 501.047 C 635.344 502.062, 629.381 502.990, 626.052 503.110 C 622.724 503.230, 620 503.464, 620 503.630 C 620 503.795, 621.550 506.759, 623.444 510.216 C 625.338 513.672, 628.231 520.550, 629.873 525.500 C 631.514 530.450, 633.403 538.291, 634.069 542.924 C 634.778 547.851, 635.035 555.322, 634.689 560.924 C 634.340 566.574, 633.048 574.111, 631.537 579.307 C 630.128 584.152, 627.806 590.452, 626.376 593.307 C 624.946 596.163, 622.027 600.792, 619.888 603.592 C 617.665 606.504, 616 609.802, 616 611.294 C 616 612.729, 617.290 617.741, 618.866 622.432 C 620.442 627.122, 623.254 633.496, 625.116 636.595 C 626.977 639.694, 631.421 644.918, 634.990 648.203 C 639.098 651.983, 644.422 655.574, 649.490 657.985 C 653.896 660.081, 659.975 662.391, 663 663.120 C 666.025 663.849, 672.550 664.427, 677.500 664.405 C 683.086 664.380, 688.756 663.694, 692.448 662.597 C 695.719 661.625, 700.986 659.522, 704.152 657.923 C 707.318 656.325, 712.829 652.286, 716.398 648.946 C 719.968 645.607, 724.529 640.403, 726.534 637.383 C 728.539 634.362, 731.581 628.202, 733.294 623.695 C 736.239 615.943, 736.408 614.744, 736.411 601.500 C 736.414 590.417, 735.959 585.676, 734.225 578.744 C 733.020 573.929, 731.148 568.250, 730.064 566.125 C 728.398 562.860, 727.348 562.073, 723.296 561.054 C 720.658 560.390, 715.175 558.464, 711.111 556.772 C 707.047 555.081, 700.297 551.113, 696.111 547.955 C 691.925 544.796, 686.189 539.351, 683.363 535.856 C 680.538 532.360, 676.920 527.250, 675.322 524.500 C 673.724 521.750, 671.149 516.575, 669.599 513 C 668.049 509.425, 666.034 502.870, 665.122 498.434 C 663.463 490.368, 663.463 490.368, 660.481 492.267 M 272.641 497.980 C 271.763 501.867, 269.840 508.074, 268.368 511.773 C 266.895 515.473, 263.848 521.520, 261.595 525.211 C 259.343 528.901, 255.353 534.395, 252.729 537.419 C 250.104 540.442, 245.379 544.898, 242.229 547.320 C 239.078 549.743, 234.117 552.970, 231.205 554.491 C 228.293 556.012, 222.236 558.477, 217.745 559.969 C 212.397 561.745, 208.963 563.512, 207.790 565.090 C 206.806 566.416, 204.809 572, 203.353 577.500 C 201.175 585.726, 200.691 589.806, 200.623 600.500 C 200.560 610.392, 200.975 614.934, 202.360 619.500 C 203.360 622.800, 205.817 628.650, 207.819 632.500 C 210.211 637.100, 214.038 642.075, 218.980 647.010 C 223.331 651.355, 229.028 655.848, 232.500 657.671 C 235.800 659.404, 241.200 661.620, 244.500 662.595 C 248.577 663.799, 253.865 664.366, 261 664.363 C 270.082 664.360, 272.654 663.956, 280.044 661.370 C 284.743 659.726, 291.128 656.695, 294.232 654.634 C 297.335 652.574, 302.491 648.089, 305.687 644.668 C 308.884 641.246, 313.017 635.593, 314.872 632.105 C 316.726 628.617, 318.858 623.454, 319.610 620.632 C 320.361 617.809, 320.982 613.793, 320.988 611.707 C 320.997 608.824, 320.046 606.650, 317.024 602.648 C 314.837 599.751, 311.757 594.483, 310.179 590.940 C 308.601 587.398, 306.466 581.575, 305.433 578 C 303.964 572.914, 303.549 568.128, 303.527 556 C 303.504 542.858, 303.852 539.207, 305.814 532 C 307.086 527.325, 310.214 519.225, 312.765 514 C 315.315 508.775, 317.540 504.265, 317.708 503.977 C 317.877 503.690, 315.036 503.321, 311.394 503.157 C 307.753 502.994, 301.501 502.023, 297.501 501 C 293.501 499.977, 286.915 497.425, 282.864 495.328 C 278.814 493.232, 275.216 491.381, 274.868 491.214 C 274.521 491.048, 273.519 494.093, 272.641 497.980 M 457.017 501.497 C 453.451 502.307, 448.726 503.692, 446.517 504.576 C 444.307 505.459, 439.479 508.189, 435.786 510.644 C 432.094 513.098, 426.541 517.894, 423.448 521.303 C 419.905 525.206, 416.224 530.831, 413.501 536.500 C 411.123 541.450, 408.383 548.650, 407.412 552.500 C 406.226 557.199, 405.622 563.575, 405.573 571.896 C 405.500 584.292, 405.500 584.292, 409.940 587.896 C 412.382 589.878, 416.839 593.750, 419.844 596.500 C 422.850 599.250, 427.425 604.722, 430.012 608.661 C 432.599 612.599, 435.879 618.727, 437.301 622.278 C 438.722 625.829, 440.646 632.490, 441.576 637.080 C 442.887 643.549, 443.137 648.357, 442.690 658.463 C 442.372 665.633, 441.369 674.200, 440.462 677.500 C 439.554 680.800, 437.245 686.714, 435.331 690.642 C 433.417 694.570, 429.747 700.392, 427.176 703.580 C 424.604 706.767, 419.771 711.653, 416.437 714.438 C 413.102 717.222, 409.052 720.450, 407.437 721.611 C 404.500 723.722, 404.500 723.722, 404.542 737.111 C 404.572 746.615, 405.105 752.531, 406.381 757.500 C 407.369 761.350, 410.197 768.711, 412.664 773.858 C 416.286 781.414, 418.628 784.707, 424.825 790.959 C 430.549 796.733, 434.406 799.626, 440 802.340 C 444.125 804.342, 450.425 806.716, 454 807.615 C 458.912 808.851, 463.188 809.120, 471.500 808.716 C 478.898 808.356, 484.411 807.505, 488.336 806.115 C 491.545 804.979, 496.720 802.609, 499.836 800.849 C 502.951 799.090, 508.657 794.466, 512.514 790.575 C 517.290 785.759, 520.865 780.928, 523.714 775.443 C 526.017 771.012, 528.840 763.961, 529.989 759.773 C 531.138 755.585, 532.398 748.411, 532.789 743.830 C 533.180 739.248, 533.365 732.904, 533.200 729.731 C 532.899 723.962, 532.899 723.962, 525.200 717.964 C 520.965 714.665, 515.111 709.161, 512.192 705.733 C 509.273 702.305, 505.115 695.900, 502.952 691.500 C 500.789 687.100, 498.282 680.800, 497.380 677.500 C 496.388 673.873, 495.550 665.882, 495.260 657.294 C 494.888 646.303, 495.161 641.323, 496.462 635.294 C 497.407 630.915, 500.316 622.999, 503.100 617.229 C 507.232 608.667, 509.341 605.669, 515.778 599.215 C 520.025 594.957, 525.525 589.857, 528 587.881 C 532.500 584.288, 532.500 584.288, 532.357 571.894 C 532.254 562.929, 531.646 557.369, 530.160 551.797 C 529.030 547.560, 526.451 540.700, 524.428 536.552 C 522.406 532.404, 518.199 525.972, 515.080 522.258 C 511.732 518.272, 506.295 513.426, 501.808 510.428 C 497.627 507.635, 491.204 504.364, 487.534 503.159 C 483.688 501.896, 477.185 500.769, 472.181 500.497 C 466.513 500.189, 461.250 500.536, 457.017 501.497" stroke="none" fill="#0c9bfb" fill-rule="evenodd"/></svg>